<mxfile host="Electron" modified="2023-11-07T09:11:59.817Z" agent="Mozilla/5.0 (Windows NT 10.0; Win64; x64) AppleWebKit/537.36 (KHTML, like Gecko) draw.io/22.0.0 Chrome/114.0.5735.289 Electron/25.8.3 Safari/537.36" etag="sCIiVikRUn83BDEHb6gw" version="22.0.0" type="device">
  <diagram name="Page-1" id="1r1AyOryBnJEiCeUGwmR">
    <mxGraphModel dx="1036" dy="606" grid="1" gridSize="10" guides="1" tooltips="1" connect="1" arrows="1" fold="1" page="1" pageScale="1" pageWidth="827" pageHeight="1169" math="0" shadow="0">
      <root>
        <mxCell id="0" />
        <mxCell id="1" parent="0" />
        <mxCell id="rB4Y1eUFVRoOfI1-BTqv-1" value="" style="rounded=1;whiteSpace=wrap;html=1;sketch=1;hachureGap=4;jiggle=2;curveFitting=1;fontFamily=Architects Daughter;fontSource=https%3A%2F%2Ffonts.googleapis.com%2Fcss%3Ffamily%3DArchitects%2BDaughter;fontSize=20;dashed=1;fillColor=#f5f5f5;fontColor=#333333;strokeColor=#666666;" vertex="1" parent="1">
          <mxGeometry x="50" y="60" width="300" height="190" as="geometry" />
        </mxCell>
        <mxCell id="rB4Y1eUFVRoOfI1-BTqv-7" style="rounded=0;sketch=1;hachureGap=4;jiggle=2;curveFitting=1;orthogonalLoop=1;jettySize=auto;html=1;exitX=0.25;exitY=1;exitDx=0;exitDy=0;entryX=0.5;entryY=0;entryDx=0;entryDy=0;fontFamily=Architects Daughter;fontSource=https%3A%2F%2Ffonts.googleapis.com%2Fcss%3Ffamily%3DArchitects%2BDaughter;fontSize=16;" edge="1" parent="1" source="rB4Y1eUFVRoOfI1-BTqv-2" target="rB4Y1eUFVRoOfI1-BTqv-3">
          <mxGeometry relative="1" as="geometry" />
        </mxCell>
        <mxCell id="rB4Y1eUFVRoOfI1-BTqv-8" style="rounded=0;sketch=1;hachureGap=4;jiggle=2;curveFitting=1;orthogonalLoop=1;jettySize=auto;html=1;exitX=0.75;exitY=1;exitDx=0;exitDy=0;entryX=0.5;entryY=0;entryDx=0;entryDy=0;fontFamily=Architects Daughter;fontSource=https%3A%2F%2Ffonts.googleapis.com%2Fcss%3Ffamily%3DArchitects%2BDaughter;fontSize=16;" edge="1" parent="1" source="rB4Y1eUFVRoOfI1-BTqv-2" target="rB4Y1eUFVRoOfI1-BTqv-4">
          <mxGeometry relative="1" as="geometry" />
        </mxCell>
        <mxCell id="rB4Y1eUFVRoOfI1-BTqv-2" value="&lt;b&gt;&lt;font style=&quot;font-size: 15px;&quot;&gt;Service A&lt;/font&gt;&lt;/b&gt;" style="rounded=1;whiteSpace=wrap;html=1;sketch=1;hachureGap=4;jiggle=2;curveFitting=1;fontFamily=Architects Daughter;fontSource=https%3A%2F%2Ffonts.googleapis.com%2Fcss%3Ffamily%3DArchitects%2BDaughter;fontSize=20;fillColor=#dae8fc;strokeColor=#6c8ebf;" vertex="1" parent="1">
          <mxGeometry x="155" y="70" width="90" height="40" as="geometry" />
        </mxCell>
        <mxCell id="rB4Y1eUFVRoOfI1-BTqv-12" style="edgeStyle=orthogonalEdgeStyle;rounded=0;sketch=1;hachureGap=4;jiggle=2;curveFitting=1;orthogonalLoop=1;jettySize=auto;html=1;exitX=0.5;exitY=1;exitDx=0;exitDy=0;fontFamily=Architects Daughter;fontSource=https%3A%2F%2Ffonts.googleapis.com%2Fcss%3Ffamily%3DArchitects%2BDaughter;fontSize=16;" edge="1" parent="1" source="rB4Y1eUFVRoOfI1-BTqv-3" target="rB4Y1eUFVRoOfI1-BTqv-10">
          <mxGeometry relative="1" as="geometry" />
        </mxCell>
        <mxCell id="rB4Y1eUFVRoOfI1-BTqv-3" value="&lt;b&gt;&lt;font style=&quot;font-size: 15px;&quot;&gt;Service B&lt;/font&gt;&lt;/b&gt;" style="rounded=1;whiteSpace=wrap;html=1;sketch=1;hachureGap=4;jiggle=2;curveFitting=1;fontFamily=Architects Daughter;fontSource=https%3A%2F%2Ffonts.googleapis.com%2Fcss%3Ffamily%3DArchitects%2BDaughter;fontSize=20;fillColor=#d5e8d4;strokeColor=#82b366;" vertex="1" parent="1">
          <mxGeometry x="90" y="130" width="90" height="40" as="geometry" />
        </mxCell>
        <mxCell id="rB4Y1eUFVRoOfI1-BTqv-9" style="edgeStyle=orthogonalEdgeStyle;rounded=0;sketch=1;hachureGap=4;jiggle=2;curveFitting=1;orthogonalLoop=1;jettySize=auto;html=1;exitX=0.5;exitY=1;exitDx=0;exitDy=0;entryX=0.5;entryY=0;entryDx=0;entryDy=0;fontFamily=Architects Daughter;fontSource=https%3A%2F%2Ffonts.googleapis.com%2Fcss%3Ffamily%3DArchitects%2BDaughter;fontSize=16;" edge="1" parent="1" source="rB4Y1eUFVRoOfI1-BTqv-4" target="rB4Y1eUFVRoOfI1-BTqv-5">
          <mxGeometry relative="1" as="geometry" />
        </mxCell>
        <mxCell id="rB4Y1eUFVRoOfI1-BTqv-4" value="&lt;b&gt;&lt;font style=&quot;font-size: 15px;&quot;&gt;Service C&lt;/font&gt;&lt;/b&gt;" style="rounded=1;whiteSpace=wrap;html=1;sketch=1;hachureGap=4;jiggle=2;curveFitting=1;fontFamily=Architects Daughter;fontSource=https%3A%2F%2Ffonts.googleapis.com%2Fcss%3Ffamily%3DArchitects%2BDaughter;fontSize=20;fillColor=#f8cecc;strokeColor=#b85450;" vertex="1" parent="1">
          <mxGeometry x="220" y="130" width="90" height="40" as="geometry" />
        </mxCell>
        <mxCell id="rB4Y1eUFVRoOfI1-BTqv-13" style="edgeStyle=orthogonalEdgeStyle;rounded=0;sketch=1;hachureGap=4;jiggle=2;curveFitting=1;orthogonalLoop=1;jettySize=auto;html=1;exitX=0.5;exitY=1;exitDx=0;exitDy=0;fontFamily=Architects Daughter;fontSource=https%3A%2F%2Ffonts.googleapis.com%2Fcss%3Ffamily%3DArchitects%2BDaughter;fontSize=16;" edge="1" parent="1" source="rB4Y1eUFVRoOfI1-BTqv-5" target="rB4Y1eUFVRoOfI1-BTqv-11">
          <mxGeometry relative="1" as="geometry" />
        </mxCell>
        <mxCell id="rB4Y1eUFVRoOfI1-BTqv-5" value="&lt;b&gt;&lt;font style=&quot;font-size: 15px;&quot;&gt;Service D&lt;/font&gt;&lt;/b&gt;" style="rounded=1;whiteSpace=wrap;html=1;sketch=1;hachureGap=4;jiggle=2;curveFitting=1;fontFamily=Architects Daughter;fontSource=https%3A%2F%2Ffonts.googleapis.com%2Fcss%3Ffamily%3DArchitects%2BDaughter;fontSize=20;fillColor=#e1d5e7;strokeColor=#9673a6;" vertex="1" parent="1">
          <mxGeometry x="220" y="190" width="90" height="40" as="geometry" />
        </mxCell>
        <mxCell id="rB4Y1eUFVRoOfI1-BTqv-10" value="" style="sketch=0;pointerEvents=1;shadow=0;dashed=0;html=1;strokeColor=#2D7600;fillColor=#60a917;labelPosition=center;verticalLabelPosition=bottom;verticalAlign=top;align=center;outlineConnect=0;shape=mxgraph.veeam2.letter;hachureGap=4;jiggle=2;curveFitting=1;fontFamily=Architects Daughter;fontSource=https%3A%2F%2Ffonts.googleapis.com%2Fcss%3Ffamily%3DArchitects%2BDaughter;fontSize=20;fontColor=#ffffff;" vertex="1" parent="1">
          <mxGeometry x="121" y="260" width="28.000000000000004" height="20" as="geometry" />
        </mxCell>
        <mxCell id="rB4Y1eUFVRoOfI1-BTqv-11" value="" style="sketch=0;pointerEvents=1;shadow=0;dashed=0;html=1;strokeColor=#006EAF;fillColor=#1ba1e2;labelPosition=center;verticalLabelPosition=bottom;verticalAlign=top;align=center;outlineConnect=0;shape=mxgraph.veeam2.letter;hachureGap=4;jiggle=2;curveFitting=1;fontFamily=Architects Daughter;fontSource=https%3A%2F%2Ffonts.googleapis.com%2Fcss%3Ffamily%3DArchitects%2BDaughter;fontSize=20;fontColor=#ffffff;" vertex="1" parent="1">
          <mxGeometry x="251" y="260" width="28.000000000000004" height="20" as="geometry" />
        </mxCell>
        <mxCell id="rB4Y1eUFVRoOfI1-BTqv-14" value="Process Manager" style="text;html=1;align=center;verticalAlign=middle;resizable=0;points=[];autosize=1;strokeColor=none;fillColor=none;fontSize=20;fontFamily=Architects Daughter;fontStyle=1" vertex="1" parent="1">
          <mxGeometry x="105" y="293" width="190" height="40" as="geometry" />
        </mxCell>
        <mxCell id="rB4Y1eUFVRoOfI1-BTqv-15" value="&lt;font style=&quot;font-size: 15px;&quot;&gt;Central unit that &lt;br&gt;orchestrates communication&lt;/font&gt;" style="text;html=1;align=center;verticalAlign=middle;resizable=0;points=[];autosize=1;strokeColor=none;fillColor=none;fontSize=20;fontFamily=Architects Daughter;fontStyle=0" vertex="1" parent="1">
          <mxGeometry x="100" y="320" width="220" height="60" as="geometry" />
        </mxCell>
        <mxCell id="rB4Y1eUFVRoOfI1-BTqv-16" value="" style="shape=cylinder3;whiteSpace=wrap;html=1;boundedLbl=1;backgroundOutline=1;size=15;sketch=1;hachureGap=4;jiggle=2;curveFitting=1;fontFamily=Architects Daughter;fontSource=https%3A%2F%2Ffonts.googleapis.com%2Fcss%3Ffamily%3DArchitects%2BDaughter;fontSize=20;fillColor=#f5f5f5;strokeColor=#666666;fontColor=#333333;" vertex="1" parent="1">
          <mxGeometry x="485" y="113" width="120" height="150" as="geometry" />
        </mxCell>
        <mxCell id="rB4Y1eUFVRoOfI1-BTqv-17" value="" style="sketch=0;pointerEvents=1;shadow=0;dashed=0;html=1;strokeColor=#6F0000;fillColor=#a20025;labelPosition=center;verticalLabelPosition=bottom;verticalAlign=top;align=center;outlineConnect=0;shape=mxgraph.veeam2.letter;hachureGap=4;jiggle=2;curveFitting=1;fontFamily=Architects Daughter;fontSource=https%3A%2F%2Ffonts.googleapis.com%2Fcss%3Ffamily%3DArchitects%2BDaughter;fontSize=20;fontColor=#ffffff;" vertex="1" parent="1">
          <mxGeometry x="515" y="163" width="28.000000000000004" height="20" as="geometry" />
        </mxCell>
        <mxCell id="rB4Y1eUFVRoOfI1-BTqv-18" value="" style="sketch=0;pointerEvents=1;shadow=0;dashed=0;html=1;strokeColor=#006EAF;fillColor=#1ba1e2;labelPosition=center;verticalLabelPosition=bottom;verticalAlign=top;align=center;outlineConnect=0;shape=mxgraph.veeam2.letter;hachureGap=4;jiggle=2;curveFitting=1;fontFamily=Architects Daughter;fontSource=https%3A%2F%2Ffonts.googleapis.com%2Fcss%3Ffamily%3DArchitects%2BDaughter;fontSize=20;fontColor=#ffffff;" vertex="1" parent="1">
          <mxGeometry x="570" y="170" width="28.000000000000004" height="20" as="geometry" />
        </mxCell>
        <mxCell id="rB4Y1eUFVRoOfI1-BTqv-19" value="" style="sketch=0;pointerEvents=1;shadow=0;dashed=0;html=1;strokeColor=#2D7600;fillColor=#60a917;labelPosition=center;verticalLabelPosition=bottom;verticalAlign=top;align=center;outlineConnect=0;shape=mxgraph.veeam2.letter;hachureGap=4;jiggle=2;curveFitting=1;fontFamily=Architects Daughter;fontSource=https%3A%2F%2Ffonts.googleapis.com%2Fcss%3Ffamily%3DArchitects%2BDaughter;fontSize=20;fontColor=#ffffff;" vertex="1" parent="1">
          <mxGeometry x="505" y="223" width="28.000000000000004" height="20" as="geometry" />
        </mxCell>
        <mxCell id="rB4Y1eUFVRoOfI1-BTqv-21" value="Event Sourcing" style="text;html=1;align=center;verticalAlign=middle;resizable=0;points=[];autosize=1;strokeColor=none;fillColor=none;fontSize=20;fontFamily=Architects Daughter;fontStyle=1" vertex="1" parent="1">
          <mxGeometry x="455" y="293" width="160" height="40" as="geometry" />
        </mxCell>
        <mxCell id="rB4Y1eUFVRoOfI1-BTqv-22" value="&lt;font style=&quot;font-size: 15px;&quot;&gt;Store event and build &lt;br&gt;current state using events&lt;/font&gt;" style="text;html=1;align=center;verticalAlign=middle;resizable=0;points=[];autosize=1;strokeColor=none;fillColor=none;fontSize=20;fontFamily=Architects Daughter;fontStyle=0" vertex="1" parent="1">
          <mxGeometry x="440" y="320" width="210" height="60" as="geometry" />
        </mxCell>
        <mxCell id="rB4Y1eUFVRoOfI1-BTqv-24" value="" style="endArrow=classic;html=1;rounded=0;sketch=1;hachureGap=4;jiggle=2;curveFitting=1;fontFamily=Architects Daughter;fontSource=https%3A%2F%2Ffonts.googleapis.com%2Fcss%3Ffamily%3DArchitects%2BDaughter;fontSize=16;" edge="1" parent="1">
          <mxGeometry width="50" height="50" relative="1" as="geometry">
            <mxPoint x="414" y="187.5" as="sourcePoint" />
            <mxPoint x="474" y="187.5" as="targetPoint" />
          </mxGeometry>
        </mxCell>
        <mxCell id="rB4Y1eUFVRoOfI1-BTqv-25" value="store events" style="edgeLabel;html=1;align=center;verticalAlign=middle;resizable=0;points=[];fontSize=15;fontFamily=Architects Daughter;horizontal=0;" vertex="1" connectable="0" parent="rB4Y1eUFVRoOfI1-BTqv-24">
          <mxGeometry x="0.0867" y="-1" relative="1" as="geometry">
            <mxPoint x="-7" y="-5" as="offset" />
          </mxGeometry>
        </mxCell>
        <mxCell id="rB4Y1eUFVRoOfI1-BTqv-26" value="" style="endArrow=classic;html=1;rounded=0;sketch=1;hachureGap=4;jiggle=2;curveFitting=1;fontFamily=Architects Daughter;fontSource=https%3A%2F%2Ffonts.googleapis.com%2Fcss%3Ffamily%3DArchitects%2BDaughter;fontSize=16;" edge="1" parent="1">
          <mxGeometry width="50" height="50" relative="1" as="geometry">
            <mxPoint x="610" y="189.5" as="sourcePoint" />
            <mxPoint x="670" y="189.5" as="targetPoint" />
          </mxGeometry>
        </mxCell>
        <mxCell id="rB4Y1eUFVRoOfI1-BTqv-27" value="consume events" style="edgeLabel;html=1;align=center;verticalAlign=middle;resizable=0;points=[];fontSize=15;fontFamily=Architects Daughter;horizontal=0;" vertex="1" connectable="0" parent="rB4Y1eUFVRoOfI1-BTqv-26">
          <mxGeometry x="0.0867" y="-1" relative="1" as="geometry">
            <mxPoint x="-7" y="-5" as="offset" />
          </mxGeometry>
        </mxCell>
        <mxCell id="rB4Y1eUFVRoOfI1-BTqv-28" value="" style="sketch=0;pointerEvents=1;shadow=0;dashed=0;html=1;strokeColor=#BD7000;fillColor=#f0a30a;labelPosition=center;verticalLabelPosition=bottom;verticalAlign=top;align=center;outlineConnect=0;shape=mxgraph.veeam2.letter;hachureGap=4;jiggle=2;curveFitting=1;fontFamily=Architects Daughter;fontSource=https%3A%2F%2Ffonts.googleapis.com%2Fcss%3Ffamily%3DArchitects%2BDaughter;fontSize=20;fontColor=#000000;" vertex="1" parent="1">
          <mxGeometry x="550" y="203" width="28.000000000000004" height="20" as="geometry" />
        </mxCell>
        <mxCell id="rB4Y1eUFVRoOfI1-BTqv-29" value="" style="rounded=1;whiteSpace=wrap;html=1;sketch=1;hachureGap=4;jiggle=2;curveFitting=1;fontFamily=Architects Daughter;fontSource=https%3A%2F%2Ffonts.googleapis.com%2Fcss%3Ffamily%3DArchitects%2BDaughter;fontSize=20;fillColor=#f5f5f5;fontColor=#333333;strokeColor=#666666;" vertex="1" parent="1">
          <mxGeometry x="720" y="209" width="220" height="50" as="geometry" />
        </mxCell>
        <mxCell id="rB4Y1eUFVRoOfI1-BTqv-31" value="" style="sketch=0;pointerEvents=1;shadow=0;dashed=0;html=1;strokeColor=#2D7600;fillColor=#60a917;labelPosition=center;verticalLabelPosition=bottom;verticalAlign=top;align=center;outlineConnect=0;shape=mxgraph.veeam2.letter;hachureGap=4;jiggle=2;curveFitting=1;fontFamily=Architects Daughter;fontSource=https%3A%2F%2Ffonts.googleapis.com%2Fcss%3Ffamily%3DArchitects%2BDaughter;fontSize=20;fontColor=#ffffff;" vertex="1" parent="1">
          <mxGeometry x="730" y="224" width="28.000000000000004" height="20" as="geometry" />
        </mxCell>
        <mxCell id="rB4Y1eUFVRoOfI1-BTqv-32" value="" style="sketch=0;pointerEvents=1;shadow=0;dashed=0;html=1;strokeColor=#2D7600;fillColor=#60a917;labelPosition=center;verticalLabelPosition=bottom;verticalAlign=top;align=center;outlineConnect=0;shape=mxgraph.veeam2.letter;hachureGap=4;jiggle=2;curveFitting=1;fontFamily=Architects Daughter;fontSource=https%3A%2F%2Ffonts.googleapis.com%2Fcss%3Ffamily%3DArchitects%2BDaughter;fontSize=20;fontColor=#ffffff;" vertex="1" parent="1">
          <mxGeometry x="770" y="224" width="28.000000000000004" height="20" as="geometry" />
        </mxCell>
        <mxCell id="rB4Y1eUFVRoOfI1-BTqv-33" value="" style="sketch=0;pointerEvents=1;shadow=0;dashed=0;html=1;strokeColor=#2D7600;fillColor=#60a917;labelPosition=center;verticalLabelPosition=bottom;verticalAlign=top;align=center;outlineConnect=0;shape=mxgraph.veeam2.letter;hachureGap=4;jiggle=2;curveFitting=1;fontFamily=Architects Daughter;fontSource=https%3A%2F%2Ffonts.googleapis.com%2Fcss%3Ffamily%3DArchitects%2BDaughter;fontSize=20;fontColor=#ffffff;" vertex="1" parent="1">
          <mxGeometry x="810" y="224" width="28.000000000000004" height="20" as="geometry" />
        </mxCell>
        <mxCell id="rB4Y1eUFVRoOfI1-BTqv-34" value="" style="sketch=0;pointerEvents=1;shadow=0;dashed=0;html=1;strokeColor=#2D7600;fillColor=#60a917;labelPosition=center;verticalLabelPosition=bottom;verticalAlign=top;align=center;outlineConnect=0;shape=mxgraph.veeam2.letter;hachureGap=4;jiggle=2;curveFitting=1;fontFamily=Architects Daughter;fontSource=https%3A%2F%2Ffonts.googleapis.com%2Fcss%3Ffamily%3DArchitects%2BDaughter;fontSize=20;fontColor=#ffffff;" vertex="1" parent="1">
          <mxGeometry x="852.5" y="224" width="28.000000000000004" height="20" as="geometry" />
        </mxCell>
        <mxCell id="rB4Y1eUFVRoOfI1-BTqv-35" value="" style="sketch=0;pointerEvents=1;shadow=0;dashed=0;html=1;strokeColor=#2D7600;fillColor=#60a917;labelPosition=center;verticalLabelPosition=bottom;verticalAlign=top;align=center;outlineConnect=0;shape=mxgraph.veeam2.letter;hachureGap=4;jiggle=2;curveFitting=1;fontFamily=Architects Daughter;fontSource=https%3A%2F%2Ffonts.googleapis.com%2Fcss%3Ffamily%3DArchitects%2BDaughter;fontSize=20;fontColor=#ffffff;" vertex="1" parent="1">
          <mxGeometry x="890" y="224" width="28.000000000000004" height="20" as="geometry" />
        </mxCell>
        <mxCell id="rB4Y1eUFVRoOfI1-BTqv-36" value="" style="endArrow=classic;html=1;rounded=0;sketch=1;hachureGap=4;jiggle=2;curveFitting=1;fontFamily=Architects Daughter;fontSource=https%3A%2F%2Ffonts.googleapis.com%2Fcss%3Ffamily%3DArchitects%2BDaughter;fontSize=16;" edge="1" parent="1">
          <mxGeometry width="50" height="50" relative="1" as="geometry">
            <mxPoint x="680" y="234" as="sourcePoint" />
            <mxPoint x="718" y="233.5" as="targetPoint" />
          </mxGeometry>
        </mxCell>
        <mxCell id="rB4Y1eUFVRoOfI1-BTqv-39" value="" style="endArrow=classic;html=1;rounded=0;sketch=1;hachureGap=4;jiggle=2;curveFitting=1;fontFamily=Architects Daughter;fontSource=https%3A%2F%2Ffonts.googleapis.com%2Fcss%3Ffamily%3DArchitects%2BDaughter;fontSize=16;" edge="1" parent="1">
          <mxGeometry width="50" height="50" relative="1" as="geometry">
            <mxPoint x="942" y="233.5" as="sourcePoint" />
            <mxPoint x="982" y="233.5" as="targetPoint" />
          </mxGeometry>
        </mxCell>
        <mxCell id="rB4Y1eUFVRoOfI1-BTqv-40" value="Event streaming" style="text;html=1;align=center;verticalAlign=middle;resizable=0;points=[];autosize=1;strokeColor=none;fillColor=none;fontSize=20;fontFamily=Architects Daughter;fontStyle=1" vertex="1" parent="1">
          <mxGeometry x="740" y="293" width="170" height="40" as="geometry" />
        </mxCell>
        <mxCell id="rB4Y1eUFVRoOfI1-BTqv-41" value="&lt;span style=&quot;font-size: 15px;&quot;&gt;Unbounded stream of events&lt;/span&gt;" style="text;html=1;align=center;verticalAlign=middle;resizable=0;points=[];autosize=1;strokeColor=none;fillColor=none;fontSize=20;fontFamily=Architects Daughter;fontStyle=0" vertex="1" parent="1">
          <mxGeometry x="730" y="320" width="220" height="40" as="geometry" />
        </mxCell>
        <mxCell id="rB4Y1eUFVRoOfI1-BTqv-56" style="rounded=0;sketch=1;hachureGap=4;jiggle=2;curveFitting=1;orthogonalLoop=1;jettySize=auto;html=1;exitX=1;exitY=0.25;exitDx=0;exitDy=0;entryX=0;entryY=0.25;entryDx=0;entryDy=0;fontFamily=Architects Daughter;fontSource=https%3A%2F%2Ffonts.googleapis.com%2Fcss%3Ffamily%3DArchitects%2BDaughter;fontSize=16;" edge="1" parent="1" source="rB4Y1eUFVRoOfI1-BTqv-42" target="rB4Y1eUFVRoOfI1-BTqv-51">
          <mxGeometry relative="1" as="geometry" />
        </mxCell>
        <mxCell id="rB4Y1eUFVRoOfI1-BTqv-58" style="rounded=0;sketch=1;hachureGap=4;jiggle=2;curveFitting=1;orthogonalLoop=1;jettySize=auto;html=1;exitX=0;exitY=0.75;exitDx=0;exitDy=0;entryX=1;entryY=0.75;entryDx=0;entryDy=0;fontFamily=Architects Daughter;fontSource=https%3A%2F%2Ffonts.googleapis.com%2Fcss%3Ffamily%3DArchitects%2BDaughter;fontSize=16;" edge="1" parent="1" source="rB4Y1eUFVRoOfI1-BTqv-42" target="rB4Y1eUFVRoOfI1-BTqv-50">
          <mxGeometry relative="1" as="geometry" />
        </mxCell>
        <mxCell id="rB4Y1eUFVRoOfI1-BTqv-59" value="act" style="edgeLabel;html=1;align=center;verticalAlign=middle;resizable=0;points=[];fontSize=15;fontFamily=Architects Daughter;fontStyle=1" vertex="1" connectable="0" parent="rB4Y1eUFVRoOfI1-BTqv-58">
          <mxGeometry x="-0.1667" y="-2" relative="1" as="geometry">
            <mxPoint x="-2" y="14" as="offset" />
          </mxGeometry>
        </mxCell>
        <mxCell id="rB4Y1eUFVRoOfI1-BTqv-42" value="" style="rounded=1;whiteSpace=wrap;html=1;sketch=1;hachureGap=4;jiggle=2;curveFitting=1;fontFamily=Architects Daughter;fontSource=https%3A%2F%2Ffonts.googleapis.com%2Fcss%3Ffamily%3DArchitects%2BDaughter;fontSize=20;" vertex="1" parent="1">
          <mxGeometry x="161" y="480" width="85" height="30" as="geometry" />
        </mxCell>
        <mxCell id="rB4Y1eUFVRoOfI1-BTqv-43" value="" style="sketch=0;pointerEvents=1;shadow=0;dashed=0;html=1;strokeColor=#2D7600;fillColor=#60a917;labelPosition=center;verticalLabelPosition=bottom;verticalAlign=top;align=center;outlineConnect=0;shape=mxgraph.veeam2.letter;hachureGap=4;jiggle=2;curveFitting=1;fontFamily=Architects Daughter;fontSource=https%3A%2F%2Ffonts.googleapis.com%2Fcss%3Ffamily%3DArchitects%2BDaughter;fontSize=20;fontColor=#ffffff;" vertex="1" parent="1">
          <mxGeometry x="171" y="485" width="25" height="15" as="geometry" />
        </mxCell>
        <mxCell id="rB4Y1eUFVRoOfI1-BTqv-44" value="" style="sketch=0;pointerEvents=1;shadow=0;dashed=0;html=1;strokeColor=#C73500;fillColor=#fa6800;labelPosition=center;verticalLabelPosition=bottom;verticalAlign=top;align=center;outlineConnect=0;shape=mxgraph.veeam2.letter;hachureGap=4;jiggle=2;curveFitting=1;fontFamily=Architects Daughter;fontSource=https%3A%2F%2Ffonts.googleapis.com%2Fcss%3Ffamily%3DArchitects%2BDaughter;fontSize=20;fontColor=#000000;" vertex="1" parent="1">
          <mxGeometry x="203.5" y="485" width="25" height="15" as="geometry" />
        </mxCell>
        <mxCell id="rB4Y1eUFVRoOfI1-BTqv-52" style="rounded=0;sketch=1;hachureGap=4;jiggle=2;curveFitting=1;orthogonalLoop=1;jettySize=auto;html=1;exitX=1;exitY=0.25;exitDx=0;exitDy=0;entryX=0;entryY=0.25;entryDx=0;entryDy=0;fontFamily=Architects Daughter;fontSource=https%3A%2F%2Ffonts.googleapis.com%2Fcss%3Ffamily%3DArchitects%2BDaughter;fontSize=16;" edge="1" parent="1" source="rB4Y1eUFVRoOfI1-BTqv-50" target="rB4Y1eUFVRoOfI1-BTqv-42">
          <mxGeometry relative="1" as="geometry" />
        </mxCell>
        <mxCell id="rB4Y1eUFVRoOfI1-BTqv-50" value="&lt;font style=&quot;font-size: 15px;&quot;&gt;Sender&lt;/font&gt;" style="rounded=1;whiteSpace=wrap;html=1;sketch=1;hachureGap=4;jiggle=2;curveFitting=1;fontFamily=Architects Daughter;fontSource=https%3A%2F%2Ffonts.googleapis.com%2Fcss%3Ffamily%3DArchitects%2BDaughter;fontSize=20;fontStyle=1;fillColor=#d5e8d4;strokeColor=#82b366;" vertex="1" parent="1">
          <mxGeometry x="55" y="473.12" width="66" height="46.88" as="geometry" />
        </mxCell>
        <mxCell id="rB4Y1eUFVRoOfI1-BTqv-57" style="rounded=0;sketch=1;hachureGap=4;jiggle=2;curveFitting=1;orthogonalLoop=1;jettySize=auto;html=1;exitX=0;exitY=0.75;exitDx=0;exitDy=0;entryX=1;entryY=0.75;entryDx=0;entryDy=0;fontFamily=Architects Daughter;fontSource=https%3A%2F%2Ffonts.googleapis.com%2Fcss%3Ffamily%3DArchitects%2BDaughter;fontSize=16;" edge="1" parent="1" source="rB4Y1eUFVRoOfI1-BTqv-51" target="rB4Y1eUFVRoOfI1-BTqv-42">
          <mxGeometry relative="1" as="geometry" />
        </mxCell>
        <mxCell id="rB4Y1eUFVRoOfI1-BTqv-51" value="&lt;font style=&quot;font-size: 15px;&quot;&gt;Receiver&lt;/font&gt;" style="rounded=1;whiteSpace=wrap;html=1;sketch=1;hachureGap=4;jiggle=2;curveFitting=1;fontFamily=Architects Daughter;fontSource=https%3A%2F%2Ffonts.googleapis.com%2Fcss%3Ffamily%3DArchitects%2BDaughter;fontSize=20;fontStyle=1;fillColor=#dae8fc;strokeColor=#6c8ebf;" vertex="1" parent="1">
          <mxGeometry x="292" y="471.25" width="76" height="48.75" as="geometry" />
        </mxCell>
        <mxCell id="rB4Y1eUFVRoOfI1-BTqv-60" value="act" style="edgeLabel;html=1;align=center;verticalAlign=middle;resizable=0;points=[];fontSize=15;fontFamily=Architects Daughter;fontStyle=1" vertex="1" connectable="0" parent="1">
          <mxGeometry x="154" y="530.5" as="geometry">
            <mxPoint x="119" y="-14" as="offset" />
          </mxGeometry>
        </mxCell>
        <mxCell id="rB4Y1eUFVRoOfI1-BTqv-61" value="" style="sketch=0;pointerEvents=1;shadow=0;dashed=0;html=1;strokeColor=#001DBC;fillColor=#0050ef;labelPosition=center;verticalLabelPosition=bottom;verticalAlign=top;align=center;outlineConnect=0;shape=mxgraph.veeam2.letter;hachureGap=4;jiggle=2;curveFitting=1;fontFamily=Architects Daughter;fontSource=https%3A%2F%2Ffonts.googleapis.com%2Fcss%3Ffamily%3DArchitects%2BDaughter;fontSize=20;fontColor=#ffffff;" vertex="1" parent="1">
          <mxGeometry x="129" y="458.12" width="25" height="15" as="geometry" />
        </mxCell>
        <mxCell id="rB4Y1eUFVRoOfI1-BTqv-62" value="" style="sketch=0;pointerEvents=1;shadow=0;dashed=0;html=1;strokeColor=#6F0000;fillColor=#a20025;labelPosition=center;verticalLabelPosition=bottom;verticalAlign=top;align=center;outlineConnect=0;shape=mxgraph.veeam2.letter;hachureGap=4;jiggle=2;curveFitting=1;fontFamily=Architects Daughter;fontSource=https%3A%2F%2Ffonts.googleapis.com%2Fcss%3Ffamily%3DArchitects%2BDaughter;fontSize=20;fontColor=#ffffff;" vertex="1" parent="1">
          <mxGeometry x="254" y="460" width="25" height="15" as="geometry" />
        </mxCell>
        <mxCell id="rB4Y1eUFVRoOfI1-BTqv-63" value="Point-to-point" style="text;html=1;align=center;verticalAlign=middle;resizable=0;points=[];autosize=1;strokeColor=none;fillColor=none;fontSize=20;fontFamily=Architects Daughter;fontStyle=1" vertex="1" parent="1">
          <mxGeometry x="115" y="540" width="140" height="40" as="geometry" />
        </mxCell>
        <mxCell id="rB4Y1eUFVRoOfI1-BTqv-64" value="&lt;span style=&quot;font-size: 15px;&quot;&gt;Sender put message on queue&lt;br&gt;Receiver reads from queue and deletes message&lt;br&gt;&lt;/span&gt;" style="text;html=1;align=center;verticalAlign=middle;resizable=0;points=[];autosize=1;strokeColor=none;fillColor=none;fontSize=20;fontFamily=Architects Daughter;fontStyle=0" vertex="1" parent="1">
          <mxGeometry x="5" y="560" width="370" height="60" as="geometry" />
        </mxCell>
        <mxCell id="rB4Y1eUFVRoOfI1-BTqv-67" style="edgeStyle=orthogonalEdgeStyle;rounded=0;sketch=1;hachureGap=4;jiggle=2;curveFitting=1;orthogonalLoop=1;jettySize=auto;html=1;exitX=1;exitY=0.5;exitDx=0;exitDy=0;exitPerimeter=0;entryX=0;entryY=0.5;entryDx=0;entryDy=0;fontFamily=Architects Daughter;fontSource=https%3A%2F%2Ffonts.googleapis.com%2Fcss%3Ffamily%3DArchitects%2BDaughter;fontSize=16;" edge="1" parent="1" source="rB4Y1eUFVRoOfI1-BTqv-65" target="rB4Y1eUFVRoOfI1-BTqv-66">
          <mxGeometry relative="1" as="geometry" />
        </mxCell>
        <mxCell id="rB4Y1eUFVRoOfI1-BTqv-65" value="&lt;b&gt;&lt;font style=&quot;font-size: 15px;&quot;&gt;DB&lt;/font&gt;&lt;/b&gt;" style="shape=cylinder3;whiteSpace=wrap;html=1;boundedLbl=1;backgroundOutline=1;size=15;sketch=1;hachureGap=4;jiggle=2;curveFitting=1;fontFamily=Architects Daughter;fontSource=https%3A%2F%2Ffonts.googleapis.com%2Fcss%3Ffamily%3DArchitects%2BDaughter;fontSize=20;fillColor=#f5f5f5;fontColor=#333333;strokeColor=#666666;" vertex="1" parent="1">
          <mxGeometry x="468.5" y="443.12" width="77" height="93.44" as="geometry" />
        </mxCell>
        <mxCell id="rB4Y1eUFVRoOfI1-BTqv-66" value="Consumer" style="rounded=1;whiteSpace=wrap;html=1;sketch=1;hachureGap=4;jiggle=2;curveFitting=1;fontFamily=Architects Daughter;fontSource=https%3A%2F%2Ffonts.googleapis.com%2Fcss%3Ffamily%3DArchitects%2BDaughter;fontSize=15;fontStyle=1;fillColor=#dae8fc;strokeColor=#6c8ebf;" vertex="1" parent="1">
          <mxGeometry x="592" y="470.46" width="90" height="38.75" as="geometry" />
        </mxCell>
        <mxCell id="rB4Y1eUFVRoOfI1-BTqv-68" value="" style="endArrow=classic;html=1;rounded=0;sketch=1;hachureGap=4;jiggle=2;curveFitting=1;fontFamily=Architects Daughter;fontSource=https%3A%2F%2Ffonts.googleapis.com%2Fcss%3Ffamily%3DArchitects%2BDaughter;fontSize=16;fontStyle=1" edge="1" parent="1">
          <mxGeometry width="50" height="50" relative="1" as="geometry">
            <mxPoint x="408" y="489.34" as="sourcePoint" />
            <mxPoint x="468" y="489.34" as="targetPoint" />
          </mxGeometry>
        </mxCell>
        <mxCell id="rB4Y1eUFVRoOfI1-BTqv-71" value="&lt;font style=&quot;&quot;&gt;&lt;font style=&quot;font-size: 13px;&quot;&gt;Change record (SQL)&lt;/font&gt;&lt;br&gt;&lt;/font&gt;" style="edgeLabel;html=1;align=center;verticalAlign=middle;resizable=0;points=[];fontSize=20;fontFamily=Architects Daughter;horizontal=0;" vertex="1" connectable="0" parent="rB4Y1eUFVRoOfI1-BTqv-68">
          <mxGeometry x="-0.2667" y="5" relative="1" as="geometry">
            <mxPoint x="10" y="-8" as="offset" />
          </mxGeometry>
        </mxCell>
        <mxCell id="rB4Y1eUFVRoOfI1-BTqv-69" value="" style="sketch=0;pointerEvents=1;shadow=0;dashed=0;html=1;strokeColor=#001DBC;fillColor=#0050ef;labelPosition=center;verticalLabelPosition=bottom;verticalAlign=top;align=center;outlineConnect=0;shape=mxgraph.veeam2.letter;hachureGap=4;jiggle=2;curveFitting=1;fontFamily=Architects Daughter;fontSource=https%3A%2F%2Ffonts.googleapis.com%2Fcss%3Ffamily%3DArchitects%2BDaughter;fontSize=20;fontColor=#ffffff;" vertex="1" parent="1">
          <mxGeometry x="556" y="465" width="25" height="15" as="geometry" />
        </mxCell>
        <mxCell id="rB4Y1eUFVRoOfI1-BTqv-72" value="Change data capture" style="text;html=1;align=center;verticalAlign=middle;resizable=0;points=[];autosize=1;strokeColor=none;fillColor=none;fontSize=20;fontFamily=Architects Daughter;fontStyle=1" vertex="1" parent="1">
          <mxGeometry x="403" y="540" width="220" height="40" as="geometry" />
        </mxCell>
        <mxCell id="rB4Y1eUFVRoOfI1-BTqv-73" value="&lt;span style=&quot;font-size: 15px;&quot;&gt;Consume changes directly from DB&lt;br&gt;&lt;/span&gt;" style="text;html=1;align=center;verticalAlign=middle;resizable=0;points=[];autosize=1;strokeColor=none;fillColor=none;fontSize=20;fontFamily=Architects Daughter;fontStyle=0" vertex="1" parent="1">
          <mxGeometry x="383" y="570" width="270" height="40" as="geometry" />
        </mxCell>
        <mxCell id="rB4Y1eUFVRoOfI1-BTqv-91" style="rounded=0;sketch=1;hachureGap=4;jiggle=2;curveFitting=1;orthogonalLoop=1;jettySize=auto;html=1;exitX=1;exitY=0.25;exitDx=0;exitDy=0;entryX=0;entryY=0.5;entryDx=0;entryDy=0;fontFamily=Architects Daughter;fontSource=https%3A%2F%2Ffonts.googleapis.com%2Fcss%3Ffamily%3DArchitects%2BDaughter;fontSize=16;" edge="1" parent="1" source="rB4Y1eUFVRoOfI1-BTqv-77" target="rB4Y1eUFVRoOfI1-BTqv-83">
          <mxGeometry relative="1" as="geometry" />
        </mxCell>
        <mxCell id="rB4Y1eUFVRoOfI1-BTqv-92" style="rounded=0;sketch=1;hachureGap=4;jiggle=2;curveFitting=1;orthogonalLoop=1;jettySize=auto;html=1;exitX=1;exitY=0.75;exitDx=0;exitDy=0;entryX=0;entryY=0.5;entryDx=0;entryDy=0;fontFamily=Architects Daughter;fontSource=https%3A%2F%2Ffonts.googleapis.com%2Fcss%3Ffamily%3DArchitects%2BDaughter;fontSize=16;" edge="1" parent="1" source="rB4Y1eUFVRoOfI1-BTqv-77" target="rB4Y1eUFVRoOfI1-BTqv-90">
          <mxGeometry relative="1" as="geometry" />
        </mxCell>
        <mxCell id="rB4Y1eUFVRoOfI1-BTqv-77" value="" style="rounded=1;whiteSpace=wrap;html=1;sketch=1;hachureGap=4;jiggle=2;curveFitting=1;fontFamily=Architects Daughter;fontSource=https%3A%2F%2Ffonts.googleapis.com%2Fcss%3Ffamily%3DArchitects%2BDaughter;fontSize=20;" vertex="1" parent="1">
          <mxGeometry x="826" y="471.44" width="85" height="30" as="geometry" />
        </mxCell>
        <mxCell id="rB4Y1eUFVRoOfI1-BTqv-78" value="" style="sketch=0;pointerEvents=1;shadow=0;dashed=0;html=1;strokeColor=#2D7600;fillColor=#60a917;labelPosition=center;verticalLabelPosition=bottom;verticalAlign=top;align=center;outlineConnect=0;shape=mxgraph.veeam2.letter;hachureGap=4;jiggle=2;curveFitting=1;fontFamily=Architects Daughter;fontSource=https%3A%2F%2Ffonts.googleapis.com%2Fcss%3Ffamily%3DArchitects%2BDaughter;fontSize=20;fontColor=#ffffff;" vertex="1" parent="1">
          <mxGeometry x="836" y="476.44" width="25" height="15" as="geometry" />
        </mxCell>
        <mxCell id="rB4Y1eUFVRoOfI1-BTqv-79" value="" style="sketch=0;pointerEvents=1;shadow=0;dashed=0;html=1;strokeColor=#C73500;fillColor=#fa6800;labelPosition=center;verticalLabelPosition=bottom;verticalAlign=top;align=center;outlineConnect=0;shape=mxgraph.veeam2.letter;hachureGap=4;jiggle=2;curveFitting=1;fontFamily=Architects Daughter;fontSource=https%3A%2F%2Ffonts.googleapis.com%2Fcss%3Ffamily%3DArchitects%2BDaughter;fontSize=20;fontColor=#000000;" vertex="1" parent="1">
          <mxGeometry x="868.5" y="476.44" width="25" height="15" as="geometry" />
        </mxCell>
        <mxCell id="rB4Y1eUFVRoOfI1-BTqv-89" style="rounded=0;sketch=1;hachureGap=4;jiggle=2;curveFitting=1;orthogonalLoop=1;jettySize=auto;html=1;exitX=1;exitY=0.5;exitDx=0;exitDy=0;entryX=0;entryY=0.5;entryDx=0;entryDy=0;fontFamily=Architects Daughter;fontSource=https%3A%2F%2Ffonts.googleapis.com%2Fcss%3Ffamily%3DArchitects%2BDaughter;fontSize=16;" edge="1" parent="1" source="rB4Y1eUFVRoOfI1-BTqv-81" target="rB4Y1eUFVRoOfI1-BTqv-77">
          <mxGeometry relative="1" as="geometry" />
        </mxCell>
        <mxCell id="rB4Y1eUFVRoOfI1-BTqv-81" value="&lt;font style=&quot;font-size: 15px;&quot;&gt;Sender&lt;/font&gt;" style="rounded=1;whiteSpace=wrap;html=1;sketch=1;hachureGap=4;jiggle=2;curveFitting=1;fontFamily=Architects Daughter;fontSource=https%3A%2F%2Ffonts.googleapis.com%2Fcss%3Ffamily%3DArchitects%2BDaughter;fontSize=20;fontStyle=1;fillColor=#d5e8d4;strokeColor=#82b366;" vertex="1" parent="1">
          <mxGeometry x="720" y="464.56" width="66" height="46.88" as="geometry" />
        </mxCell>
        <mxCell id="rB4Y1eUFVRoOfI1-BTqv-83" value="&lt;font style=&quot;font-size: 15px;&quot;&gt;Consumer 1&lt;/font&gt;" style="rounded=1;whiteSpace=wrap;html=1;sketch=1;hachureGap=4;jiggle=2;curveFitting=1;fontFamily=Architects Daughter;fontSource=https%3A%2F%2Ffonts.googleapis.com%2Fcss%3Ffamily%3DArchitects%2BDaughter;fontSize=20;fontStyle=1;fillColor=#dae8fc;strokeColor=#6c8ebf;" vertex="1" parent="1">
          <mxGeometry x="952" y="442.03" width="93" height="37.31" as="geometry" />
        </mxCell>
        <mxCell id="rB4Y1eUFVRoOfI1-BTqv-85" value="" style="sketch=0;pointerEvents=1;shadow=0;dashed=0;html=1;strokeColor=#001DBC;fillColor=#0050ef;labelPosition=center;verticalLabelPosition=bottom;verticalAlign=top;align=center;outlineConnect=0;shape=mxgraph.veeam2.letter;hachureGap=4;jiggle=2;curveFitting=1;fontFamily=Architects Daughter;fontSource=https%3A%2F%2Ffonts.googleapis.com%2Fcss%3Ffamily%3DArchitects%2BDaughter;fontSize=20;fontColor=#ffffff;" vertex="1" parent="1">
          <mxGeometry x="794" y="449.56" width="25" height="15" as="geometry" />
        </mxCell>
        <mxCell id="rB4Y1eUFVRoOfI1-BTqv-87" value="Pub/Sub" style="text;html=1;align=center;verticalAlign=middle;resizable=0;points=[];autosize=1;strokeColor=none;fillColor=none;fontSize=20;fontFamily=Architects Daughter;fontStyle=1" vertex="1" parent="1">
          <mxGeometry x="800" y="531.44" width="100" height="40" as="geometry" />
        </mxCell>
        <mxCell id="rB4Y1eUFVRoOfI1-BTqv-88" value="&lt;span style=&quot;font-size: 15px;&quot;&gt;Publish same message to&lt;br&gt;many consumers. Messages preserved&lt;br&gt;&lt;/span&gt;" style="text;html=1;align=center;verticalAlign=middle;resizable=0;points=[];autosize=1;strokeColor=none;fillColor=none;fontSize=20;fontFamily=Architects Daughter;fontStyle=0" vertex="1" parent="1">
          <mxGeometry x="710" y="560" width="290" height="60" as="geometry" />
        </mxCell>
        <mxCell id="rB4Y1eUFVRoOfI1-BTqv-90" value="&lt;font style=&quot;font-size: 15px;&quot;&gt;Consumer 1&lt;/font&gt;" style="rounded=1;whiteSpace=wrap;html=1;sketch=1;hachureGap=4;jiggle=2;curveFitting=1;fontFamily=Architects Daughter;fontSource=https%3A%2F%2Ffonts.googleapis.com%2Fcss%3Ffamily%3DArchitects%2BDaughter;fontSize=20;fontStyle=1;fillColor=#dae8fc;strokeColor=#6c8ebf;" vertex="1" parent="1">
          <mxGeometry x="952" y="488.54999999999995" width="93" height="37.31" as="geometry" />
        </mxCell>
        <mxCell id="rB4Y1eUFVRoOfI1-BTqv-93" value="" style="sketch=0;pointerEvents=1;shadow=0;dashed=0;html=1;strokeColor=#C73500;fillColor=#fa6800;labelPosition=center;verticalLabelPosition=bottom;verticalAlign=top;align=center;outlineConnect=0;shape=mxgraph.veeam2.letter;hachureGap=4;jiggle=2;curveFitting=1;fontFamily=Architects Daughter;fontSource=https%3A%2F%2Ffonts.googleapis.com%2Fcss%3Ffamily%3DArchitects%2BDaughter;fontSize=20;fontColor=#000000;" vertex="1" parent="1">
          <mxGeometry x="915" y="453.18" width="25" height="15" as="geometry" />
        </mxCell>
        <mxCell id="rB4Y1eUFVRoOfI1-BTqv-94" value="" style="sketch=0;pointerEvents=1;shadow=0;dashed=0;html=1;strokeColor=#C73500;fillColor=#fa6800;labelPosition=center;verticalLabelPosition=bottom;verticalAlign=top;align=center;outlineConnect=0;shape=mxgraph.veeam2.letter;hachureGap=4;jiggle=2;curveFitting=1;fontFamily=Architects Daughter;fontSource=https%3A%2F%2Ffonts.googleapis.com%2Fcss%3Ffamily%3DArchitects%2BDaughter;fontSize=20;fontColor=#000000;" vertex="1" parent="1">
          <mxGeometry x="915" y="505" width="25" height="15" as="geometry" />
        </mxCell>
      </root>
    </mxGraphModel>
  </diagram>
</mxfile>
